#N canvas 1005 381 445 405 10;
#X obj 107 137 loadbang;
#X obj 58 246 osc~;
#X obj 150 246 osc~;
#X obj 115 303 *~ 0.1;
#X obj 115 325 dac~;
#X obj 107 181 t b b;
#X text 75 10 Random sine pairs;
#X text 147 179 two random numbers;
#X text 199 253 two oscillators;
#X text 233 207 timebase 90ms;
#X text 178 302 sum both oscillators;
#X obj 108 159 metro 1;
#X obj 150 224 random 1500;
#X obj 58 224 random 1500;
#X obj 54 69 r left;
#X obj 278 91 r right;
#X floatatom 275 170 5 0 0 0 - - -;
#X obj 275 146 * 10;
#X floatatom 278 116 5 0 0 0 - - -;
#X connect 0 0 11 0;
#X connect 1 0 3 0;
#X connect 2 0 3 0;
#X connect 3 0 4 0;
#X connect 3 0 4 1;
#X connect 5 0 13 0;
#X connect 5 1 12 0;
#X connect 11 0 5 0;
#X connect 12 0 2 0;
#X connect 13 0 1 0;
#X connect 14 0 11 1;
#X connect 15 0 18 0;
#X connect 16 0 12 1;
#X connect 16 0 13 1;
#X connect 17 0 16 0;
#X connect 18 0 17 0;
