#N canvas 851 439 748 583 10;
#X obj 78 116 dac~;
#X obj 157 81 *~ 1;
#X obj 158 37 *~ 0.2;
#X obj 14 83 *~ 1;
#X obj 15 39 *~ 0.2;
#X obj 35 63 r left;
#X obj 178 60 r right;
#X obj 15 20 osc~ 800;
#X obj 158 18 osc~ 100;
#X floatatom 324 69 5 0 0 0 - - -;
#X connect 1 0 0 1;
#X connect 2 0 1 0;
#X connect 3 0 0 0;
#X connect 4 0 3 0;
#X connect 5 0 3 1;
#X connect 6 0 1 1;
#X connect 7 0 4 0;
#X connect 8 0 2 0;
#X connect 9 0 1 1;
